{"title":"Pirates Of The Caribbean - 2 (2006) 1080p Blu-ray AAC 5.1 Subs -","uid":15611665,"size":2746329395,"categoryP":"video","categoryS":"hd___movies","magnet":"?xt=urn:btih:80d31eb060ac3616f2ed3abdb417b4632130d52c&amp;dn=Pirates+Of+The+Caribbean+-+2+%282006%29+1080p+Blu-ray+AAC+5.1+Subs+-&amp;tr=udp%3A%2F%2Ftracker.leechers-paradise.org%3A6969&amp;tr=udp%3A%2F%2Fzer0day.ch%3A1337&amp;tr=udp%3A%2F%2Fopen.demonii.com%3A1337&amp;tr=udp%3A%2F%2Ftracker.coppersurfer.tk%3A6969&amp;tr=udp%3A%2F%2Fexodus.desync.com%3A6969","seeders":0,"leechers":1,"uploader":"SaM","files":3,"time":1471789980,"description":"- HollyWooD Movie-\r\n\r\nPirates of the Caribbean\r\nThe Dead Mans's Chest\r\n** 2006 **\r\n1080p / Blu-ray / x264\r\nEnglish AAC 5.1\r\nEnglish &amp; French subs \r\n \nhttp://extraimago.com/image/wcxX \nhttp://extraimago.com/image/wcxP \nhttp://extraimago.com/image/wcxG \nhttp://extraimago.com/image/wcxr \nhttp://extraimago.com/image/wcxp \nhttp://extraimago.com/image/wcxY \nhttp://extraimago.com/image/wcxC \nhttp://extraimago.com/image/wcxB \nhttp://extraimago.com/image/wcx4 \nhttp://extraimago.com/image/wcxe\r\n\r\nFile size : 2.55 GiB\r\nDuration : 2h 30mn\r\nOverall bit rate : 2 420 Kbps\r\n\r\nVideo\r\nFormat : AVC\r\nFormat/Info : Advanced Video Codec\r\nFormat profile :   \r\nFormat settings, CABAC : Yes\r\nFormat settings, ReFrames : 5 frames\r\nCodec ID : V_MPEG4/ISO/AVC\r\nDuration : 2h 30mn\r\nBit rate : 2 220 Kbps\r\nWidth : 1 920 pixels\r\nHeight : 800 pixels\r\nDisplay aspect ratio : 2.40:1\r\nFrame rate mode : Constant\r\nFrame rate : 23.976 (24000/1001) fps\r\ncolor space : YUV\r\nChroma subsampling : 4:2:0\r\nBit depth : 8 bits\r\nScan type : Progressive\r\nBits/(Pixel*Frame) : 0.060\r\nStream size : 2.34 GiB (92%)\r\n\r\nAudio\r\nFormat : AAC\r\nFormat/Info : Advanced Audio Codec\r\nFormat profile : LC\r\nCodec ID : A_AAC\r\nDuration : 2h 30mn\r\nBit rate : 192 Kbps\r\nChannel(s) : 6 channels\r\nChannel positions : Front: L C R, Side: L R, LFE\r\nSampling rate : 48.0 KHz\r\nFrame rate : 46.875 fps (1024 spf)\r\nCompression mode : Lossy\r\nDelay relative to video : 9ms\r\nStream size : 206 MiB (8%)\r\nLanguage : English\r\nDefault : Yes\r\nForced : No\r\n\r\n\r\nChapters = None\r\nSample : Included","torrent":{"xt":"urn:btih:80d31eb060ac3616f2ed3abdb417b4632130d52c","amp;dn":"Pirates+Of+The+Caribbean+-+2+%282006%29+1080p+Blu-ray+AAC+5.1+Subs+-","amp;tr":["udp%3A%2F%2Ftracker.leechers-paradise.org%3A6969","udp%3A%2F%2Fzer0day.ch%3A1337","udp%3A%2F%2Fopen.demonii.com%3A1337","udp%3A%2F%2Ftracker.coppersurfer.tk%3A6969","udp%3A%2F%2Fexodus.desync.com%3A6969"],"infoHash":"80d31eb060ac3616f2ed3abdb417b4632130d52c","infoHashBuffer":{"type":"Buffer","data":[128,211,30,176,96,172,54,22,242,237,58,189,180,23,180,99,33,48,213,44]},"announce":[],"urlList":[]}}